<svg width="41" height="41" viewBox="0 0 41 41" fill="none" xmlns="http://www.w3.org/2000/svg">
<path d="M33.1185 6.09483C32.7884 6.10263 32.4747 6.24072 32.2461 6.47895L20.2132 18.5118L8.18033 6.47895C8.06382 6.35896 7.92441 6.26357 7.77036 6.19843C7.61632 6.13329 7.45077 6.09972 7.28352 6.09971C7.03475 6.09977 6.79166 6.17405 6.58534 6.31305C6.37903 6.45204 6.21887 6.64943 6.12537 6.87996C6.03186 7.11048 6.00926 7.36367 6.06046 7.60711C6.11165 7.85055 6.23432 8.07319 6.41275 8.24652L18.4456 20.2794L6.41275 32.3123C6.29279 32.4275 6.19701 32.5654 6.13103 32.7181C6.06505 32.8707 6.0302 33.035 6.02851 33.2013C6.02682 33.3676 6.05832 33.5326 6.12119 33.6866C6.18405 33.8405 6.277 33.9804 6.3946 34.098C6.51219 34.2156 6.65207 34.3086 6.80604 34.3714C6.96001 34.4343 7.12498 34.4658 7.29128 34.4641C7.45758 34.4624 7.62187 34.4276 7.77453 34.3616C7.92719 34.2956 8.06515 34.1998 8.18033 34.0799L20.2132 22.047L32.2461 34.0799C32.3613 34.1998 32.4992 34.2956 32.6519 34.3616C32.8045 34.4276 32.9688 34.4624 33.1351 34.4641C33.3014 34.4658 33.4664 34.4343 33.6204 34.3714C33.7743 34.3086 33.9142 34.2156 34.0318 34.098C34.1494 33.9804 34.2424 33.8405 34.3052 33.6866C34.3681 33.5326 34.3996 33.3676 34.3979 33.2013C34.3962 33.035 34.3614 32.8707 34.2954 32.7181C34.2294 32.5654 34.1336 32.4275 34.0137 32.3123L21.9808 20.2794L34.0137 8.24652C34.1954 8.07206 34.3203 7.84674 34.3717 7.60011C34.4232 7.35347 34.399 7.09703 34.3022 6.86441C34.2054 6.63179 34.0406 6.43384 33.8294 6.29651C33.6182 6.15918 33.3704 6.08888 33.1185 6.09483Z" fill="#EA580C"/>
</svg>
