<svg width="73" height="72" viewBox="0 0 73 72" fill="none" xmlns="http://www.w3.org/2000/svg">
<path d="M39.5 25.5H27.5C21.701 25.5 17 20.799 17 15C17 9.201 21.701 4.5 27.5 4.5H39.5V25.5Z" fill="#E64A19"/>
<path d="M38 46.5H27.5C21.701 46.5 17 41.799 17 36C17 30.201 21.701 25.5 27.5 25.5H38V46.5Z" fill="#7C4DFF"/>
<path d="M27.5 67.5C21.701 67.5 17 62.799 17 57C17 51.201 21.701 46.5 27.5 46.5H38V57C38 62.799 33.299 67.5 27.5 67.5Z" fill="#66BB6A"/>
<path d="M48.5 25.5H38V4.5H48.5C54.299 4.5 59 9.201 59 15C59 20.799 54.299 25.5 48.5 25.5Z" fill="#FF7043"/>
<path d="M48.5 46.5C54.299 46.5 59 41.799 59 36C59 30.201 54.299 25.5 48.5 25.5C42.701 25.5 38 30.201 38 36C38 41.799 42.701 46.5 48.5 46.5Z" fill="#29B6F6"/>
</svg>
