<svg width="22" height="22" viewBox="0 0 22 22" fill="none" xmlns="http://www.w3.org/2000/svg">
<path d="M11.0024 5.38965C7.89697 5.38965 5.39209 7.89453 5.39209 11C5.39209 14.1055 7.89697 16.6103 11.0024 16.6103C14.1079 16.6103 16.6128 14.1055 16.6128 11C16.6128 7.89453 14.1079 5.38965 11.0024 5.38965ZM11.0024 14.6475C8.99561 14.6475 7.35498 13.0117 7.35498 11C7.35498 8.98828 8.99072 7.35254 11.0024 7.35254C13.0142 7.35254 14.6499 8.98828 14.6499 11C14.6499 13.0117 13.0093 14.6475 11.0024 14.6475ZM18.1509 5.16016C18.1509 5.8877 17.5649 6.46875 16.8423 6.46875C16.1147 6.46875 15.5337 5.88281 15.5337 5.16016C15.5337 4.4375 16.1196 3.85156 16.8423 3.85156C17.5649 3.85156 18.1509 4.4375 18.1509 5.16016ZM21.8667 6.48828C21.7837 4.73535 21.3833 3.18262 20.0991 1.90332C18.8198 0.624023 17.2671 0.223633 15.5142 0.135742C13.7075 0.0332031 8.29248 0.0332031 6.48584 0.135742C4.73779 0.21875 3.18506 0.619141 1.90088 1.89844C0.616699 3.17773 0.221191 4.73047 0.133301 6.4834C0.0307617 8.29004 0.0307617 13.7051 0.133301 15.5117C0.216309 17.2646 0.616699 18.8174 1.90088 20.0967C3.18506 21.376 4.73291 21.7764 6.48584 21.8643C8.29248 21.9668 13.7075 21.9668 15.5142 21.8643C17.2671 21.7812 18.8198 21.3809 20.0991 20.0967C21.3784 18.8174 21.7788 17.2646 21.8667 15.5117C21.9692 13.7051 21.9692 8.29492 21.8667 6.48828ZM19.5327 17.4502C19.1519 18.4072 18.4146 19.1445 17.4526 19.5303C16.0122 20.1016 12.5942 19.9697 11.0024 19.9697C9.41064 19.9697 5.98779 20.0967 4.55225 19.5303C3.59521 19.1494 2.85791 18.4121 2.47217 17.4502C1.90088 16.0098 2.03271 12.5918 2.03271 11C2.03271 9.4082 1.90576 5.98535 2.47217 4.5498C2.85303 3.59277 3.59033 2.85547 4.55225 2.46973C5.99268 1.89844 9.41064 2.03027 11.0024 2.03027C12.5942 2.03027 16.0171 1.90332 17.4526 2.46973C18.4097 2.85059 19.147 3.58789 19.5327 4.5498C20.104 5.99023 19.9722 9.4082 19.9722 11C19.9722 12.5918 20.104 16.0146 19.5327 17.4502Z" fill="white"/>
</svg>
