<svg width="73" height="72" viewBox="0 0 73 72" fill="none" xmlns="http://www.w3.org/2000/svg">
<g clip-path="url(#clip0_32_96)">
<rect width="72" height="72" transform="translate(0.5)" fill="#FFD600"/>
<path d="M56.89 57.2037C57.755 58.6087 58.695 59.9549 60.6863 59.9549C62.3588 59.9549 63.2363 59.1237 63.2363 57.9737C63.2363 56.5974 62.3288 56.1087 60.4888 55.3074L59.48 54.8774C56.5688 53.6424 54.6325 52.0949 54.6325 48.8262C54.6325 45.8137 56.9388 43.5212 60.5425 43.5212C63.1088 43.5212 64.9525 44.4099 66.2825 46.7374L63.14 48.7462C62.4488 47.5112 61.7013 47.0249 60.5425 47.0249C59.36 47.0249 58.6113 47.7712 58.6113 48.7462C58.6113 49.9512 59.3613 50.4387 61.0925 51.1849L62.1013 51.6149C65.5325 53.0762 67.4675 54.5687 67.4675 57.9237C67.4675 61.5387 64.6125 63.5199 60.78 63.5199C57.0313 63.5199 54.9025 61.6387 53.7175 59.3099L56.89 57.2037ZM42.4075 57.3062C43.04 58.4387 44.0013 59.3099 45.3838 59.3099C46.7063 59.3099 47.4675 58.7874 47.4675 56.7562V43.5199H51.6338V57.3962C51.6338 61.6049 49.1925 63.5199 45.6275 63.5199C42.4063 63.5199 40.0813 61.3374 39.1338 59.3099L42.4075 57.3062Z" fill="#000001"/>
</g>
<defs>
<clipPath id="clip0_32_96">
<rect width="72" height="72" fill="white" transform="translate(0.5)"/>
</clipPath>
</defs>
</svg>
