<svg width="26" height="21" viewBox="0 0 26 21" fill="none" xmlns="http://www.w3.org/2000/svg">
<path d="M4.5625 0.5C2.33004 0.5 0.5 2.33004 0.5 4.5625V16.4375C0.5 18.67 2.33004 20.5 4.5625 20.5H21.4375C23.67 20.5 25.5 18.67 25.5 16.4375V4.5625C25.5 2.33004 23.67 0.5 21.4375 0.5H4.5625ZM4.5625 2.375H21.4375C22.6563 2.375 23.625 3.34371 23.625 4.5625V5.25342L13 10.9968L2.375 5.25342V4.5625C2.375 3.34371 3.34371 2.375 4.5625 2.375ZM2.375 7.38477L12.5544 12.8877C12.6913 12.9616 12.8444 13.0003 13 13.0003C13.1556 13.0003 13.3087 12.9616 13.4456 12.8877L23.625 7.38477V16.4375C23.625 17.6563 22.6563 18.625 21.4375 18.625H4.5625C3.34371 18.625 2.375 17.6563 2.375 16.4375V7.38477Z" fill="#1E40AF"/>
</svg>
