<svg width="24" height="25" viewBox="0 0 24 25" fill="none" xmlns="http://www.w3.org/2000/svg">
<path d="M5.23602 0.78125C4.75388 0.78125 4.27893 0.954151 3.88314 1.27113L3.82557 1.29995L3.79679 1.32877L0.918325 4.29689L0.947109 4.32571C0.0583837 5.14699 -0.21507 6.3753 0.169924 7.43792C0.173522 7.44513 0.166326 7.45953 0.169924 7.46674C0.950707 9.70364 2.94764 14.0225 6.84796 17.9272C10.7627 21.8463 15.1343 23.7662 17.2968 24.6127H17.3256C18.4446 24.9873 19.6571 24.7208 20.5207 23.9787L23.4279 21.0682C24.1907 20.3046 24.1907 18.979 23.4279 18.2154L19.6859 14.4692L19.6571 14.4116C18.8943 13.6479 17.5414 13.6479 16.7787 14.4116L14.9364 16.2558C14.2708 15.9353 12.684 15.114 11.1657 13.6623C9.65806 12.2215 8.88807 10.5645 8.60382 9.91616L10.446 8.07189C11.2196 7.29744 11.234 6.00789 10.4173 5.24785L10.446 5.21903L10.3597 5.13258L6.67525 1.32877L6.64647 1.29995L6.5889 1.27113C6.19311 0.954151 5.71816 0.78125 5.23602 0.78125ZM5.23602 2.62552C5.30438 2.62552 5.37275 2.65794 5.43751 2.71197L9.12194 6.48697L9.2083 6.57342C9.2011 6.56621 9.26227 6.66347 9.15073 6.77514L6.84796 9.08048L6.41619 9.48391L6.61768 10.0602C6.61768 10.0602 7.67552 12.8951 9.89913 15.0167L10.1006 15.1896C12.2415 17.1456 14.7637 18.2154 14.7637 18.2154L15.3394 18.4747L18.074 15.7371C18.2323 15.5787 18.2035 15.5787 18.3618 15.7371L22.1326 19.5121C22.2909 19.6706 22.2909 19.613 22.1326 19.7715L19.3117 22.5955C18.8871 22.9593 18.4374 23.035 17.9013 22.8549C15.8144 22.0336 11.7593 20.2506 8.14327 16.6305C4.49841 12.9815 2.59503 8.84274 1.897 6.83277C1.75668 6.45815 1.85742 5.90343 2.18485 5.62246L2.24242 5.56483L5.03453 2.71197C5.09929 2.65794 5.16766 2.62552 5.23602 2.62552Z" fill="#1E40AF"/>
</svg>
