<svg width="73" height="72" viewBox="0 0 73 72" fill="none" xmlns="http://www.w3.org/2000/svg">
<g clip-path="url(#clip0_32_64)">
<path d="M36.5 52.02C15.9764 52.02 0.5 45.306 0.5 36C0.5 26.694 15.9764 19.8 36.5 19.8C57.0236 19.8 72.5 26.694 72.5 36C72.5 45.306 57.0236 52.02 36.5 52.02ZM36.5 25.0776C18.9878 25.0776 5.675 30.9564 5.675 36.1134C5.675 41.2704 18.9878 46.9224 36.5 46.9224C54.0122 46.9224 67.325 41.0436 67.325 35.8866C67.325 30.7296 54.0122 25.0776 36.5 25.0776Z" fill="#4E7AB5"/>
<path d="M22.8237 68.4C21.1479 68.4 19.6179 68.0112 18.2733 67.2444C16.0773 65.9898 14.5023 63.774 13.7157 60.8328C11.6529 53.1252 14.9811 40.1652 22.1991 27.8136C30.6681 13.3326 41.9127 3.60541 50.1783 3.60541C51.8523 3.60541 53.3823 3.99421 54.7269 4.76101C56.9193 6.01201 58.4961 8.22601 59.2827 11.1654C61.3473 18.873 58.0173 31.8348 50.7957 44.1864C42.3339 58.6692 31.0911 68.4 22.8237 68.4ZM50.1783 9.00541C44.9799 9.00541 35.0421 16.5528 26.8611 30.5388C19.4397 43.2396 17.2635 53.775 18.9339 59.436C19.3857 60.9642 20.0229 62.0244 20.9517 62.5536C25.2015 64.98 36.8079 57.4236 46.1355 41.463C53.5605 28.7604 55.9635 18.45 54.0663 12.564C53.5785 11.0502 52.9791 9.98101 52.0521 9.45361C51.5247 9.15121 50.9109 9.00541 50.1783 9.00541Z" fill="#4E7AB5"/>
<path d="M50.1783 68.3946C41.9037 68.3928 30.6609 58.6656 22.1991 44.1864C14.9811 31.8348 11.6529 18.873 13.7157 11.1672C14.5023 8.22601 16.0773 6.01021 18.2715 4.75741C19.6179 3.98881 21.1479 3.60001 22.8201 3.60001C31.0911 3.60001 42.3321 13.3308 50.7957 27.8136C58.0155 40.1634 61.3437 53.1252 59.2809 60.8346C58.4925 63.774 56.9175 65.988 54.7269 67.239C53.3823 68.0058 51.8505 68.3946 50.1783 68.3946ZM22.8201 9.00001C22.0875 9.00001 21.4755 9.14761 20.9481 9.44641C20.0211 9.97561 19.3749 11.0322 18.9321 12.564C17.2617 18.3384 19.4379 28.7622 26.8593 41.463C35.0331 55.4472 44.9727 62.9946 50.1765 62.9946C50.9109 62.9946 51.5229 62.847 52.0503 62.5464C52.9755 62.0208 53.6397 60.9696 54.0627 59.436C55.6233 53.7732 53.5569 43.236 46.1337 30.537C37.9599 16.5492 28.0221 9.00001 22.8201 9.00001Z" fill="#4E7AB5"/>
<path d="M42.8002 36C42.8002 39.483 39.9832 42.3 36.5002 42.3C33.0172 42.3 30.2002 39.483 30.2002 36C30.2002 32.517 33.0172 29.7 36.5002 29.7C39.9832 29.7 42.8002 32.517 42.8002 36Z" fill="#8BB7F0"/>
<path d="M36.4998 43.2C32.529 43.2 29.2998 39.9708 29.2998 36C29.2998 32.0292 32.529 28.8 36.4998 28.8C40.4706 28.8 43.6998 32.0292 43.6998 36C43.6998 39.9708 40.4706 43.2 36.4998 43.2ZM36.4998 30.6C33.5226 30.6 31.0998 33.0228 31.0998 36C31.0998 38.9772 33.5226 41.4 36.4998 41.4C39.477 41.4 41.8998 38.9772 41.8998 36C41.8998 33.0228 39.477 30.6 36.4998 30.6Z" fill="#4E7AB5"/>
<path d="M36.4998 50.5224C17.3226 50.5224 2.2998 44.1432 2.2998 36C2.2998 27.8568 17.3226 21.4776 36.4998 21.4776C55.677 21.4776 70.6998 27.8568 70.6998 36C70.6998 44.1432 55.677 50.5224 36.4998 50.5224ZM36.4998 23.2776C18.9372 23.2776 4.0998 29.1042 4.0998 36C4.0998 42.8958 18.9372 48.7224 36.4998 48.7224C54.0624 48.7224 68.8998 42.8976 68.8998 36C68.8998 29.1024 54.0624 23.2776 36.4998 23.2776Z" fill="#8BB7F0"/>
<path d="M22.8237 66.6C21.4647 66.6 20.2353 66.2904 19.1643 65.6802C17.3715 64.656 16.1241 62.8686 15.4527 60.3666C13.5069 53.1 16.7649 40.6782 23.7507 28.7208C31.7823 14.994 42.6489 5.4054 50.1783 5.4054C51.5355 5.4054 52.7667 5.715 53.8359 6.3252C55.6269 7.3476 56.8743 9.1332 57.5457 11.6316C59.4915 18.8982 56.2335 31.32 49.2441 43.2792C41.2179 57.0096 30.3549 66.6 22.8237 66.6ZM50.1783 7.20539C43.3671 7.20539 32.9073 16.6356 25.3077 29.6298C18.6567 41.0148 15.3951 53.1792 17.1933 59.9022C17.7351 61.9236 18.6981 63.3402 20.0589 64.1178C20.8527 64.5696 21.7815 64.8 22.8219 64.8C29.6349 64.8 40.0929 55.368 47.6871 42.3702C54.3417 30.9834 57.6051 18.8172 55.8033 12.0978C55.2633 10.08 54.3003 8.6634 52.9413 7.8894C52.1475 7.4358 51.2187 7.20539 50.1783 7.20539Z" fill="#8BB7F0"/>
<path d="M50.1781 66.5946C42.6415 66.5928 31.7749 57.006 23.7523 43.2792C16.7647 31.3218 13.5085 18.9 15.4543 11.6334C16.1239 9.13139 17.3713 7.34399 19.1659 6.31979C20.2351 5.70959 21.4645 5.39999 22.8199 5.39999C30.3529 5.39999 41.2177 14.9904 49.2421 28.7208C56.2315 40.6764 59.4877 53.0982 57.5401 60.3684C56.8723 62.8686 55.6249 64.6542 53.8339 65.6748C52.7647 66.285 51.5353 66.5946 50.1781 66.5946ZM22.8199 7.19999C21.7813 7.19999 20.8507 7.43039 20.0569 7.88219C18.6961 8.65979 17.7331 10.0764 17.1913 12.0978C15.3931 18.819 18.6547 30.9852 25.3057 42.3702C32.8999 55.3626 43.3615 64.7928 50.1781 64.7946C51.2185 64.7946 52.1491 64.5642 52.9429 64.1106C54.3001 63.3366 55.2631 61.92 55.8031 59.9022C57.6031 53.1792 54.3415 41.013 47.6887 29.6298C40.0927 16.6338 29.6365 7.19999 22.8199 7.19999Z" fill="#8BB7F0"/>
</g>
<defs>
<clipPath id="clip0_32_64">
<rect width="72" height="72" fill="white" transform="translate(0.5)"/>
</clipPath>
</defs>
</svg>
