<svg width="24" height="18" viewBox="0 0 24 18" fill="none" xmlns="http://www.w3.org/2000/svg">
<path d="M23.3566 3.27446C23.084 2.24798 22.2808 1.43956 21.261 1.16521C19.4124 0.666687 12.0001 0.666687 12.0001 0.666687C12.0001 0.666687 4.58773 0.666687 2.73917 1.16521C1.71933 1.4396 0.916119 2.24798 0.643506 3.27446C0.148193 5.135 0.148193 9.01686 0.148193 9.01686C0.148193 9.01686 0.148193 12.8987 0.643506 14.7593C0.916119 15.7857 1.71933 16.5605 2.73917 16.8348C4.58773 17.3334 12.0001 17.3334 12.0001 17.3334C12.0001 17.3334 19.4124 17.3334 21.261 16.8348C22.2808 16.5605 23.084 15.7857 23.3566 14.7593C23.8519 12.8987 23.8519 9.01686 23.8519 9.01686C23.8519 9.01686 23.8519 5.135 23.3566 3.27446ZM9.5758 12.5413V5.49242L15.7711 9.01695L9.5758 12.5413Z" fill="white"/>
</svg>
